<svg viewBox="0 0 40 40" style="width: 30px; height: 30px">
  <defs>
    <clipPath id="clip-path" transform="translate(0 -0.5)">
      <rect fill="none" y="0.5" width="40" height="40" />
    </clipPath>
  </defs>
  <g style="clip-path: url(#clip-path)">
    <rect fill="#d3d3d3" x="8" y="12" width="24" height="16" rx="1" />
    <rect fill="#FFF" x="10" y="14" width="4" height="3" rx="1" />
    <path
      fill="#FFF"
      d="M10.5,21.5h10a.5.5,0,0,1,.5.5h0a.5.5,0,0,1-.5.5h-10A.5.5,0,0,1,10,22h0A.5.5,0,0,1,10.5,21.5Z"
      transform="translate(0 -0.5)"
    />
    <path
      fill="#FFF"
      d="M10.5,23.5h4a.5.5,0,0,1,.5.5h0a.5.5,0,0,1-.5.5h-4A.5.5,0,0,1,10,24h0A.5.5,0,0,1,10.5,23.5Z"
      transform="translate(0 -0.5)"
    />
  </g>
</svg>
